Coordinates
version=1
nRows=32
nColumns=22
inDegrees=yes

Units are S.I. units (second, meters, Newtons, ...)
If the header above contains a line with 'inDegrees', this indicates whether rotational values are in degrees (yes) or radians (no).

endheader
time	pelvis_tilt	pelvis_list	pelvis_rotation	pelvis_tx	pelvis_ty	pelvis_tz	hip_flexion_r	hip_adduction_r	hip_rotation_r	knee_angle_r	ankle_angle_r	subtalar_angle_r	hip_flexion_l	hip_adduction_l	hip_rotation_l	knee_angle_l	ankle_angle_l	subtalar_angle_l	lumbar_extension	lumbar_bending	lumbar_rotation
      3.12000000	     -5.26447370	     -0.41657661	    -20.82714893	      1.24353319	      0.97620295	      0.42452354	     31.46560104	      2.46705766	     -4.05936182	    -36.70656159	     15.84701803	      2.85513949	     27.63753787	     -0.08029143	     -0.92193002	    -31.43967619	     14.13669913	     -0.09783979	     -5.34234381	      1.77596495	      3.13603643
      3.13000000	     -5.23689116	     -0.34349923	    -20.45353399	      1.24866413	      0.97677812	      0.42715141	     30.94921204	      2.64460717	     -3.45378389	    -35.69127489	     14.73749599	      2.58574374	     27.16804776	      0.09013368	     -0.62784805	    -31.20893440	     14.50288004	     -0.09039726	     -5.12999259	      1.57199539	      2.92144532
      3.14000000	     -5.17616268	     -0.21855327	    -20.06240353	      1.25375881	      0.97709927	      0.42964155	     30.44310351	      2.69791277	     -2.97821881	    -35.00265033	     13.87451064	      1.88870624	     26.73088748	      0.32032376	     -0.36964077	    -31.05254795	     14.86376207	     -0.08076342	     -4.91279877	      1.31732618	      2.67987330
      3.15000000	     -5.09488657	     -0.01686103	    -19.66173069	      1.25883866	      0.97718327	      0.43195565	     29.97059951	      2.60370080	     -2.65557817	    -34.59660215	     13.41519810	      0.92609565	     26.32007559	      0.64142655	     -0.11338076	    -30.92497907	     15.25511619	     -0.06021692	     -4.66879504	      0.99675796	      2.45621078
      3.16000000	     -5.00651795	      0.19714248	    -19.27009956	      1.26383025	      0.97710729	      0.43416000	     29.50199914	      2.45383307	     -2.45965996	    -34.36557630	     13.30399919	     -0.12098014	     25.94387873	      0.96943223	      0.12091181	    -30.85852835	     15.64975194	     -0.02750574	     -4.42648842	      0.68190985	      2.25591102
      3.17000000	     -4.93018457	      0.41090607	    -18.90162922	      1.26872119	      0.97691151	      0.43628251	     29.05298429	      2.27627122	     -2.38633964	    -34.24495142	     13.46115258	     -1.20026424	     25.60781580	      1.27944751	      0.32037147	    -30.83524024	     16.08244151	      0.02194821	     -4.17414389	      0.39341309	      2.10490234
      3.18000000	     -4.86571800	      0.61977254	    -18.55030797	      1.27343983	      0.97664196	      0.43830408	     28.62777257	      2.08622538	     -2.38175908	    -34.18773994	     13.85148169	     -2.18719233	     25.32511445	      1.57547100	      0.51623809	    -30.87429594	     16.47437113	      0.09210380	     -3.93227456	      0.13699670	      1.96595852
      3.19000000	     -4.83404234	      0.79614484	    -18.23813565	      1.27797230	      0.97634849	      0.44027164	     28.24248390	      1.92748071	     -2.43308146	    -34.15608579	     14.33742099	     -3.07496050	     25.10164768	      1.81294659	      0.69037354	    -30.96471766	     16.84106661	      0.18168106	     -3.69099104	     -0.05227186	      1.87989176
      3.20000000	     -4.83734960	      0.93256855	    -17.97214458	      1.28230328	      0.97608312	      0.44217981	     27.90315324	      1.81106396	     -2.51368597	    -34.13410168	     14.84438100	     -3.79724841	     24.93240346	      1.98627996	      0.85288337	    -31.09610998	     17.16844631	      0.28856217	     -3.45648971	     -0.16290873	      1.83950099
      3.21000000	     -4.87410965	      1.00959435	    -17.76518239	      1.28643660	      0.97589526	      0.44408015	     27.60675184	      1.75490326	     -2.63719363	    -34.11614984	     15.31281946	     -4.33701747	     24.80488563	      2.06176173	      0.95954308	    -31.25989530	     17.47953116	      0.40892826	     -3.23503957	     -0.18320253	      1.86538221
      3.22000000	     -4.94598968	      1.04495223	    -17.64669741	      1.29033649	      0.97579682	      0.44600829	     27.36468415	      1.76787801	     -2.70549094	    -34.10144009	     15.74508609	     -4.53104814	     24.71511409	      2.05017389	      1.00491466	    -31.43784105	     17.76621941	      0.47021215	     -3.02456551	     -0.13554693	      1.98527833
      3.23000000	     -5.02010421	      1.00659987	    -17.57334323	      1.29410980	      0.97592461	      0.44788966	     27.10367913	      1.82966816	     -2.85129090	    -34.04192966	     16.01052193	     -4.82040040	     24.58711102	      1.95305098	      1.04773832	    -31.57400473	     18.00333687	      0.69089132	     -2.86192032	      0.01216571	      2.15781181
      3.24000000	     -5.11350935	      0.97615120	    -17.57889744	      1.29770622	      0.97617146	      0.44977085	     26.88970738	      1.89827355	     -2.94386968	    -33.98380822	     16.24937833	     -4.80380264	     24.45646721	      1.82768701	      1.01795718	    -31.65274280	     18.19974926	      0.82633321	     -2.70064976	      0.16622961	      2.39338197
      3.25000000	     -5.20249160	      0.92127987	    -17.64783990	      1.30115386	      0.97660274	      0.45165072	     26.66463261	      1.99165150	     -3.02701513	    -33.88938501	     16.39979401	     -4.61457163	     24.28009301	      1.65844849	      0.95313503	    -31.66481867	     18.36093137	      1.01053751	     -2.57546802	      0.34933972	      2.69463467
      3.26000000	     -5.29334990	      0.87504129	    -17.76894243	      1.30444479	      0.97716230	      0.45352674	     26.44520957	      2.08638025	     -3.07513772	    -33.76559789	     16.49960185	     -4.30929395	     24.06705569	      1.47625965	      0.83789051	    -31.58983729	     18.49235344	      1.18937622	     -2.46562665	      0.52238091	      3.03327451
      3.27000000	     -5.39449041	      0.84385027	    -17.93507780	      1.30761212	      0.97780713	      0.45540136	     26.22965255	      2.18269721	     -3.09630736	    -33.59563848	     16.56099330	     -3.98250191	     23.82628114	      1.28825132	      0.67488336	    -31.43100737	     18.60658848	      1.34374454	     -2.35038495	      0.67990393	      3.40396747
      3.28000000	     -5.53698012	      0.82873658	    -18.13940157	      1.31063494	      0.97844654	      0.45728169	     26.04409523	      2.30348045	     -3.05573582	    -33.37110455	     16.59114993	     -3.77264451	     23.59745727	      1.08806413	      0.47756107	    -31.19780963	     18.72999152	      1.43577990	     -2.19147393	      0.83269371	      3.77642737
      3.29000000	     -5.66615119	      0.83459186	    -18.37072833	      1.31354005	      0.97914428	      0.45915054	     25.83566632	      2.41523069	     -2.99331992	    -33.09922600	     16.58052575	     -3.53107374	     23.33048204	      0.90230017	      0.23850742	    -30.89888273	     18.82295219	      1.55237730	     -2.04806669	      0.94705739	      4.17041801
      3.30000000	     -5.77323900	      0.85719756	    -18.59961141	      1.31634472	      0.97987489	      0.46095984	     25.59358937	      2.50760412	     -2.93099236	    -32.78692468	     16.60759494	     -3.24653833	     23.02076264	      0.74786817	      0.00945109	    -30.54155424	     18.90259016	      1.72875349	     -1.93093436	      1.02794777	      4.53966923
      3.31000000	     -5.97216845	      0.89367088	    -18.83265024	      1.31899951	      0.98041124	      0.46274385	     25.43155970	      2.64380092	     -2.82067524	    -32.42460016	     16.59103294	     -3.19951503	     22.82120820	      0.57301807	     -0.23619500	    -30.19139306	     19.00062208	      1.77808763	     -1.70628824	      1.12189892	      4.87804679
      3.32000000	     -6.16141343	      0.94109474	    -19.06120731	      1.32156162	      0.98091557	      0.46446644	     25.24608034	      2.77804748	     -2.69055087	    -32.02529131	     16.60171676	     -3.19894688	     22.60920248	      0.42033353	     -0.47585276	    -29.81673180	     19.09053979	      1.83937264	     -1.49315907	      1.19521826	      5.18690822
      3.33000000	     -6.35053162	      0.98884455	    -19.27941924	      1.32404460	      0.98136734	      0.46611227	     25.05064251	      2.91993919	     -2.54413018	    -31.60486572	     16.62290315	     -3.27247066	     22.39833875	      0.27599138	     -0.71577062	    -29.43139486	     19.17814093	      1.90442372	     -1.28218105	      1.27177765	      5.44972463
      3.34000000	     -6.55306826	      1.03821098	    -19.46885484	      1.32644705	      0.98173838	      0.46766659	     24.85249262	      3.06818450	     -2.38233874	    -31.14942884	     16.65508615	     -3.41743065	     22.22022811	      0.14682367	     -0.92029313	    -29.06549980	     19.26152716	      1.95499134	     -1.05668756	      1.34815409	      5.66025598
      3.35000000	     -6.76409375	      1.08302973	    -19.62842187	      1.32878036	      0.98204275	      0.46912034	     24.65401851	      3.22187809	     -2.21369053	    -30.67686258	     16.69178969	     -3.62260423	     22.06538376	      0.02762303	     -1.09386828	    -28.71294346	     19.34028087	      1.99306727	     -0.82492402	      1.43521211	      5.81686873
      3.36000000	     -6.96256755	      1.12567810	    -19.74979341	      1.33105445	      0.98232372	      0.47046815	     24.43839372	      3.36555089	     -2.05046635	    -30.19136669	     16.70592366	     -3.97328761	     21.90914298	     -0.06642887	     -1.21601610	    -28.36646438	     19.41901398	      2.03576011	     -0.61075550	      1.52020647	      5.90588915
      3.37000000	     -7.19465943	      1.14428923	    -19.84451396	      1.33324565	      0.98250530	      0.47172404	     24.25948501	      3.53480990	     -1.89947255	    -29.71861200	     16.75903276	     -4.15840798	     21.80765023	     -0.18656514	     -1.32147092	    -28.05557905	     19.48507946	      2.04430482	     -0.37168602	      1.64997707	      5.95988706
      3.38000000	     -7.39440633	      1.16406208	    -19.89891094	      1.33540076	      0.98270286	      0.47287305	     24.05333166	      3.67707693	     -1.76311528	    -29.24819468	     16.76906782	     -4.51833838	     21.68263484	     -0.27193338	     -1.37224848	    -27.74592971	     19.55886812	      2.06600251	     -0.16968864	      1.76628874	      5.95348262
      3.39000000	     -7.61452470	      1.20177860	    -19.92018453	      1.33748176	      0.98281119	      0.47390283	     23.90596910	      3.79048880	     -1.63308550	    -28.82985555	     16.84976042	     -4.58309335	     21.59993543	     -0.32817732	     -1.37117893	    -27.44429853	     19.59630188	      2.07487317	      0.05789710	      1.87457188	      5.89706238
      3.40000000	     -7.80755394	      1.16620074	    -19.93522869	      1.33952282	      0.98295827	      0.47490889	     23.69938970	      3.96189356	     -1.53506766	    -28.38686370	     16.81897876	     -4.96884230	     21.50343607	     -0.45945240	     -1.41234962	    -27.20956654	     19.69946662	      2.10283627	      0.22474305	      2.05498626	      5.84685314
      3.41000000	     -8.00874989	      1.19265220	    -19.93056471	      1.34147385	      0.98301596	      0.47578795	     23.57095348	      4.05916445	     -1.41897015	    -28.02522293	     16.88932156	     -5.02150380	     21.44300928	     -0.51429551	     -1.40499279	    -26.96390610	     19.74425644	      2.11505946	      0.41709345	      2.17557739	      5.75781859
      3.42000000	     -8.21335691	      1.15277608	    -19.91554119	      1.34333759	      0.98305529	      0.47661868	     23.42605283	      4.20942702	     -1.36002709	    -27.65039135	     16.89164117	     -5.17391236	     21.41761538	     -0.64454531	     -1.42179912	    -26.80669710	     19.84286794	      2.14455738	      0.57782582	      2.37167370	      5.67700538
      3.43000000	     -8.40088176	      1.14603676	    -19.89534389	      1.34511581	      0.98306979	      0.47737023	     23.31048739	      4.31193603	     -1.29887260	    -27.33084883	     16.91488441	     -5.32020942	     21.40012250	     -0.72999942	     -1.42845339	    -26.65704320	     19.91668736	      2.18738442	      0.72541792	      2.52934365	      5.57455941
